<svg width="11" height="15" viewBox="0 0 11 15" fill="none" xmlns="http://www.w3.org/2000/svg">
<path d="M5.66629 14.417C4.66435 14.4169 3.68554 14.1158 2.85678 13.5527C2.02801 12.9897 1.38751 12.1906 1.01832 11.2592C0.649138 10.3277 0.568293 9.30685 0.786272 8.32891C1.00425 7.35097 1.511 6.46107 2.24081 5.77458C3.13552 4.93255 5.33294 3.41648 4.9996 0.0830078C8.99977 2.74979 10.9999 5.41657 6.99968 9.41674C7.66638 9.41674 8.66642 9.41674 10.3332 7.77C10.5132 8.28536 10.6665 8.83938 10.6665 9.41674C10.6665 10.7429 10.1397 12.0147 9.20197 12.9524C8.26425 13.8901 6.99243 14.417 5.66629 14.417Z" fill="#FF4500"/>
</svg>
