<svg width="34" height="34" viewBox="0 0 34 34" fill="none" xmlns="http://www.w3.org/2000/svg">
<circle cx="17" cy="17" r="16.5" fill="#101010" stroke="#272727"/>
<path d="M19.5559 16.9826C19.5186 16.8491 19.4228 16.7476 19.3003 16.6942C19.247 16.6728 19.1884 16.6621 19.1352 16.6621C19.0606 16.6621 18.986 16.6835 18.9168 16.7209L18.3203 17.068C17.9795 17.2656 17.7664 17.6342 17.7664 18.0294V27.5521C17.7664 27.7017 17.841 27.8352 17.9741 27.91C18.102 27.9847 18.2617 27.9847 18.3896 27.91L21.4732 26.1261C21.798 25.9392 21.9578 25.5493 21.8566 25.1861L19.5612 16.9879L19.5559 16.9826Z" fill="#FFFAFA"/>
<path d="M12.7014 14.889L8.24372 12.3093C8.17981 12.272 8.10525 12.2559 8.03602 12.2559C7.96678 12.2559 7.89222 12.2773 7.82831 12.3147C7.70049 12.3895 7.62061 12.523 7.62061 12.6725V22.1953C7.62061 22.5905 7.83364 22.959 8.17448 23.1566L8.64848 23.429C8.79227 23.5144 8.9627 23.5305 9.1278 23.4824C9.2929 23.4343 9.41539 23.3222 9.48995 23.1673L12.9783 15.7969C13.1328 15.4711 13.0103 15.0759 12.6961 14.8943L12.7014 14.889Z" fill="#FFFAFA"/>
<path d="M16.4621 17.068L14.4649 15.909C14.3212 15.8236 14.1507 15.8076 13.9856 15.8556C13.8259 15.9037 13.698 16.0159 13.6235 16.1708L10.1351 23.5411C9.98065 23.8669 10.1031 24.2621 10.4174 24.4437L16.3982 27.9046C16.526 27.9794 16.6805 27.9794 16.8136 27.9046C16.9414 27.8298 17.0213 27.6963 17.0213 27.5468V18.024C17.0213 17.6288 16.8083 17.2603 16.4674 17.0627L16.4621 17.068Z" fill="#FFFAFA"/>
<path d="M26.3726 11.3C26.3726 11.1504 26.2927 11.0169 26.1649 10.9421L24.7376 10.1196C24.498 9.98077 24.2263 9.91134 23.9547 9.91134C23.8216 9.91134 23.6938 9.92737 23.5606 9.95941L11.9291 12.961C11.7747 12.9984 11.7108 13.1212 11.6948 13.228C11.6788 13.3295 11.7161 13.4683 11.8493 13.5431L16.8289 16.4272C17.1697 16.6248 17.5958 16.6248 17.9366 16.4272L26.1596 11.6685C26.2874 11.5937 26.3673 11.4602 26.3673 11.3106L26.3726 11.3Z" fill="#FFFAFA"/>
<path d="M26.9534 12.3094C26.8895 12.272 26.8149 12.2506 26.7457 12.2506C26.6764 12.2506 26.6019 12.272 26.538 12.304L20.621 15.7275C20.2962 15.9144 20.1364 16.3043 20.2376 16.6675L22.533 24.8657C22.5703 24.9992 22.6661 25.1007 22.7886 25.1541C22.9164 25.2022 23.0549 25.1968 23.1721 25.1274L26.5965 23.1459C26.9374 22.9483 27.1504 22.5798 27.1504 22.1846V12.6672C27.1504 12.5177 27.0705 12.3841 26.9427 12.3094H26.9534Z" fill="#FFFAFA"/>
<path d="M8.61694 11.6631L9.70872 12.2987C10.0655 12.507 10.481 12.5604 10.8804 12.4589L22.5119 9.45736C22.661 9.41997 22.7302 9.29713 22.7462 9.19566C22.7622 9.09418 22.7249 8.95532 22.5917 8.88055L17.9424 6.18342C17.7719 6.08194 17.5802 6.03387 17.3885 6.03387C17.1967 6.03387 17.005 6.08194 16.8346 6.18342L8.61694 10.9421C8.48912 11.0169 8.40923 11.1504 8.40923 11.3C8.40923 11.4495 8.48379 11.583 8.61694 11.6578V11.6631Z" fill="#FFFAFA"/>
</svg>
