<svg width="32" height="32" viewBox="0 0 32 32" fill="none" xmlns="http://www.w3.org/2000/svg">
<g clip-path="url(#clip0_226_992)">
<path d="M31.521 19.8707C29.3839 28.4422 20.7013 33.6587 12.1278 31.5212C3.55793 29.3843 -1.65911 20.7022 0.478986 12.1314C2.6152 3.55895 11.2977 -1.6579 19.8686 0.479019C28.4414 2.61593 33.6582 11.299 31.5208 19.8709L31.5209 19.8707H31.521Z" fill="#F7931A"/>
<path d="M23.0561 13.7205C23.3746 11.5912 21.7534 10.4467 19.5364 9.68314L20.2556 6.79889L18.4997 6.3614L17.7996 9.16972C17.3379 9.0546 16.8639 8.94612 16.3927 8.83859L17.0979 6.01174L15.3431 5.57425L14.6235 8.45757C14.2415 8.3706 13.8663 8.28465 13.5023 8.19409L13.5043 8.18502L11.0828 7.5804L10.6157 9.45564C10.6157 9.45564 11.9185 9.75423 11.891 9.77261C12.6021 9.95006 12.7307 10.4207 12.7093 10.7938L11.8901 14.0796C11.9391 14.092 12.0026 14.11 12.0726 14.1382C12.0141 14.1236 11.9517 14.1078 11.887 14.0923L10.7388 18.6953C10.6519 18.9113 10.4313 19.2354 9.93416 19.1123C9.95176 19.1378 8.65792 18.7939 8.65792 18.7939L7.78613 20.8036L10.0712 21.3732C10.4963 21.4798 10.9129 21.5913 11.3231 21.6962L10.5965 24.6136L12.3504 25.051L13.07 22.1647C13.5491 22.2947 14.0141 22.4147 14.4693 22.5278L13.7522 25.4005L15.5082 25.838L16.2347 22.9262C19.229 23.4928 21.4804 23.2643 22.428 20.5564C23.1917 18.3761 22.39 17.1185 20.8148 16.2985C21.9621 16.0339 22.8263 15.2794 23.0567 13.7207L23.0562 13.7203L23.0561 13.7205ZM19.0442 19.3456C18.5016 21.5258 14.8303 20.3472 13.64 20.0517L14.6042 16.1867C15.7944 16.4838 19.6114 17.0718 19.0443 19.3456H19.0442ZM19.5873 13.6889C19.0922 15.672 16.0366 14.6645 15.0454 14.4175L15.9196 10.9122C16.9108 11.1592 20.1029 11.6203 19.5874 13.6889H19.5873Z" fill="white"/>
</g>
<defs>
<clipPath id="clip0_226_992">
<rect width="32" height="32" fill="white"/>
</clipPath>
</defs>
</svg>
